<mxfile host="65bd71144e" scale="2" border="0">
    <diagram id="BsJQcKSuzoS74_6WNhkL" name="Page-1">
        <mxGraphModel dx="784" dy="368" grid="1" gridSize="10" guides="1" tooltips="1" connect="1" arrows="1" fold="1" page="1" pageScale="1" pageWidth="3300" pageHeight="4681" background="none" math="0" shadow="1">
            <root>
                <mxCell id="0"/>
                <mxCell id="1" parent="0"/>
                <mxCell id="28" value="" style="group;" vertex="1" connectable="0" parent="1">
                    <mxGeometry x="970" y="990" width="620.5800000000004" height="290" as="geometry"/>
                </mxCell>
                <mxCell id="12" value="" style="rounded=1;whiteSpace=wrap;html=1;fillColor=none;container=0;" parent="28" vertex="1">
                    <mxGeometry x="134.33523129130208" width="88.67011966422575" height="288.2262996941896" as="geometry"/>
                </mxCell>
                <mxCell id="2" value="" style="points=[];aspect=fixed;html=1;align=center;shadow=0;dashed=0;image;image=img/lib/allied_telesis/computer_and_terminals/Personal_Computer_with_Server.svg;container=0;" parent="28" vertex="1">
                    <mxGeometry x="144.08894445436704" y="11.08562691131499" width="69.16197221436292" height="69.16197221436292" as="geometry"/>
                </mxCell>
                <mxCell id="3" value="" style="points=[];aspect=fixed;html=1;align=center;shadow=0;dashed=0;image;image=img/lib/allied_telesis/computer_and_terminals/Laptop.svg;container=0;" parent="28" vertex="1">
                    <mxGeometry x="155.39438471155563" y="121.94189602446477" width="46.551327451975034" height="47.21634641557466" as="geometry"/>
                </mxCell>
                <mxCell id="4" value="" style="points=[];aspect=fixed;html=1;align=center;shadow=0;dashed=0;image;image=img/lib/allied_telesis/computer_and_terminals/Smartphone.svg;container=0;" parent="28" vertex="1">
                    <mxGeometry x="167.69736381496705" y="202.4235474006116" width="21.94562579878823" height="47.88136537917432" as="geometry"/>
                </mxCell>
                <mxCell id="6" value="" style="pointerEvents=1;shadow=0;dashed=0;html=1;strokeColor=none;labelPosition=center;verticalLabelPosition=bottom;verticalAlign=top;align=center;fillColor=#505050;shape=mxgraph.mscae.intune.user_group;container=0;" parent="28" vertex="1">
                    <mxGeometry x="11.083764958028382" y="125.04587155963304" width="55.418824790141095" height="41.01681957186547" as="geometry"/>
                </mxCell>
                <mxCell id="7" value="" style="aspect=fixed;perimeter=ellipsePerimeter;html=1;align=center;shadow=0;dashed=0;spacingTop=3;image;image=img/lib/active_directory/home_page.svg;container=0;" parent="28" vertex="1">
                    <mxGeometry x="299.2616538667621" y="121.94189602446477" width="55.41824696663694" height="49.876422269973254" as="geometry"/>
                </mxCell>
                <mxCell id="8" value="" style="aspect=fixed;perimeter=ellipsePerimeter;html=1;align=center;shadow=0;dashed=0;fontColor=#4277BB;labelBackgroundColor=#ffffff;fontSize=12;spacingTop=3;image;image=img/lib/ibm/infrastructure/mobile_backend.svg;container=0;" parent="28" vertex="1">
                    <mxGeometry x="542.8828076442226" y="201.3149847094801" width="62.955128554099566" height="62.955128554099566" as="geometry"/>
                </mxCell>
                <mxCell id="9" value="" style="fontColor=#0066CC;verticalAlign=top;verticalLabelPosition=bottom;labelPosition=center;align=center;html=1;outlineConnect=0;fillColor=#CCCCCC;strokeColor=#6881B3;gradientColor=none;gradientDirection=north;strokeWidth=2;shape=mxgraph.networks.storage;container=0;" parent="28" vertex="1">
                    <mxGeometry x="546.651287729952" width="55.418824790141095" height="55.42813455657494" as="geometry"/>
                </mxCell>
                <mxCell id="10" value="" style="fontColor=#0066CC;verticalAlign=top;verticalLabelPosition=bottom;labelPosition=center;align=center;html=1;outlineConnect=0;fillColor=#CCCCCC;strokeColor=#6881B3;gradientColor=none;gradientDirection=north;strokeWidth=2;shape=mxgraph.networks.web_server;container=0;" parent="28" vertex="1">
                    <mxGeometry x="432.26683336310066" y="114.95795107033655" width="61.18238256831577" height="61.19266055045873" as="geometry"/>
                </mxCell>
                <mxCell id="11" value="" style="endArrow=openThin;html=1;strokeWidth=2;endFill=0;startArrow=openThin;startFill=0;" parent="28" edge="1">
                    <mxGeometry width="50" height="50" relative="1" as="geometry">
                        <mxPoint x="66.50258974816938" y="146.50764525993895" as="sourcePoint"/>
                        <mxPoint x="121.9214145383105" y="146.50764525993895" as="targetPoint"/>
                    </mxGeometry>
                </mxCell>
                <mxCell id="14" value="" style="endArrow=openThin;html=1;strokeWidth=2;endFill=0;startArrow=openThin;startFill=0;" parent="28" edge="1">
                    <mxGeometry width="50" height="50" relative="1" as="geometry">
                        <mxPoint x="232.75906411859273" y="145" as="sourcePoint"/>
                        <mxPoint x="288.17788890873385" y="145" as="targetPoint"/>
                    </mxGeometry>
                </mxCell>
                <mxCell id="16" value="" style="endArrow=openThin;html=1;strokeWidth=2;endFill=0;startArrow=openThin;startFill=0;" parent="28" edge="1">
                    <mxGeometry width="50" height="50" relative="1" as="geometry">
                        <mxPoint x="365.7642436149315" y="145" as="sourcePoint"/>
                        <mxPoint x="421.1830684050724" y="145" as="targetPoint"/>
                    </mxGeometry>
                </mxCell>
                <mxCell id="17" value="" style="endArrow=openThin;html=1;strokeWidth=2;endFill=0;startArrow=openThin;startFill=0;" parent="28" edge="1">
                    <mxGeometry width="50" height="50" relative="1" as="geometry">
                        <mxPoint x="501.65120200035744" y="114.95795107033632" as="sourcePoint"/>
                        <mxPoint x="540.2227040542955" y="77.59938837920504" as="targetPoint"/>
                    </mxGeometry>
                </mxCell>
                <mxCell id="18" value="" style="endArrow=openThin;html=1;strokeWidth=2;endFill=0;startArrow=openThin;startFill=0;" parent="28" edge="1">
                    <mxGeometry width="50" height="50" relative="1" as="geometry">
                        <mxPoint x="504.3113055902845" y="176.1506116207952" as="sourcePoint"/>
                        <mxPoint x="542.8828076442226" y="209.40749235474004" as="targetPoint"/>
                    </mxGeometry>
                </mxCell>
                <mxCell id="19" value="&lt;font style=&quot;font-size: 10px;&quot;&gt;Service server&lt;/font&gt;" style="text;html=1;strokeColor=none;fillColor=none;align=center;verticalAlign=middle;whiteSpace=wrap;rounded=0;container=0;" parent="28" vertex="1">
                    <mxGeometry x="424.0648472941598" y="169.16666666666674" width="77.58635470619753" height="33.25688073394496" as="geometry"/>
                </mxCell>
                <mxCell id="20" value="&lt;font style=&quot;font-size: 10px;&quot;&gt;AI model server&amp;nbsp;&lt;/font&gt;" style="text;html=1;strokeColor=none;fillColor=none;align=center;verticalAlign=middle;whiteSpace=wrap;rounded=0;container=0;" parent="28" vertex="1">
                    <mxGeometry x="528.1414002500451" y="256.74311926605515" width="92.43859974995537" height="33.25688073394496" as="geometry"/>
                </mxCell>
                <mxCell id="21" value="&lt;font style=&quot;font-size: 10px;&quot;&gt;Database&lt;/font&gt;" style="text;html=1;align=center;verticalAlign=middle;whiteSpace=wrap;rounded=0;container=0;" parent="28" vertex="1">
                    <mxGeometry x="535.5675227719237" y="55.42813455657483" width="77.58635470619753" height="33.25688073394496" as="geometry"/>
                </mxCell>
                <mxCell id="22" value="&lt;font style=&quot;font-size: 10px;&quot;&gt;Web server&amp;nbsp;&lt;/font&gt;" style="text;html=1;strokeColor=none;fillColor=none;align=center;verticalAlign=middle;whiteSpace=wrap;rounded=0;container=0;" parent="28" vertex="1">
                    <mxGeometry x="288.17788890873385" y="166.06269113149847" width="77.58635470619753" height="33.25688073394496" as="geometry"/>
                </mxCell>
                <mxCell id="23" value="&lt;font style=&quot;font-size: 10px;&quot;&gt;User&lt;/font&gt;" style="text;html=1;strokeColor=none;fillColor=none;align=center;verticalAlign=middle;whiteSpace=wrap;rounded=0;container=0;" parent="28" vertex="1">
                    <mxGeometry y="166.06269113149847" width="77.58635470619753" height="33.25688073394496" as="geometry"/>
                </mxCell>
                <mxCell id="24" value="&lt;font style=&quot;font-size: 10px;&quot;&gt;Desktop computer&lt;/font&gt;" style="text;html=1;strokeColor=none;fillColor=none;align=center;verticalAlign=middle;whiteSpace=wrap;rounded=0;container=0;" parent="28" vertex="1">
                    <mxGeometry x="139.8771137703161" y="81.70107033639147" width="77.58635470619753" height="33.25688073394496" as="geometry"/>
                </mxCell>
                <mxCell id="25" value="&lt;font style=&quot;font-size: 10px;&quot;&gt;Laptop&lt;/font&gt;" style="text;html=1;strokeColor=none;fillColor=none;align=center;verticalAlign=middle;whiteSpace=wrap;rounded=0;container=0;" parent="28" vertex="1">
                    <mxGeometry x="139.8771137703161" y="166.06269113149847" width="77.58635470619753" height="33.25688073394496" as="geometry"/>
                </mxCell>
                <mxCell id="26" value="&lt;font style=&quot;font-size: 10px;&quot;&gt;Smart phone&lt;/font&gt;" style="text;html=1;strokeColor=none;fillColor=none;align=center;verticalAlign=middle;whiteSpace=wrap;rounded=0;container=0;" parent="28" vertex="1">
                    <mxGeometry x="139.8771137703161" y="250.31345565749234" width="77.58635470619753" height="33.25688073394496" as="geometry"/>
                </mxCell>
            </root>
        </mxGraphModel>
    </diagram>
</mxfile>